<?xml version="1.0" encoding="utf-8"?>
<!-- Generator: Adobe Illustrator 21.0.2, SVG Export Plug-In . SVG Version: 6.00 Build 0)  -->
<svg version="1.1" id="Calque_1" xmlns="http://www.w3.org/2000/svg" xmlns:xlink="http://www.w3.org/1999/xlink" x="0px" y="0px"
	 viewBox="0 0 1300 1715.4" style="enable-background:new 0 0 1300 1715.4;" xml:space="preserve">
<style type="text/css">
	.st0{fill:#FFFFFF;}
</style>
<rect class="st0" width="1300" height="1715.4"/>
<g>
	<path d="M865.3,737.8c94.2,0,173.1-77.1,171.2-171.2c-1.7-91.3-76.3-164.7-167.9-164.7v-0.3H301.5c-7.8,0-14,6.3-14,14v84.1
		c0,7.8,6.3,14,14,14l565.1,0c31,0,57.6,24.2,58.1,55.2c0.5,31.4-24.8,57-56.1,57H688.2c-7.8,0-14,6.3-14,14v83.8
		c0,7.8,6.3,14,14,14H865.3z"/>
	<path d="M287.5,1142.5c0,94.2,77.1,173.1,171.2,171.2c91.3-1.7,164.7-76.3,164.7-167.9h0.3V578.8c0-7.8-6.3-14-14-14h-84.1
		c-7.8,0-14,6.3-14,14l0,565.2c0,30.9-24.2,57.4-55,57.9c-31.5,0.6-57.1-24.8-57.1-56.1V965.4c0-7.8-6.3-14-14-14h-83.8
		c-7.8,0-14,6.3-14,14V1142.5z"/>
	<g>
		<path d="M294,926.7v-28.1c0-5,1.4-9.6,4.2-14c2.8-4.4,6.5-8.2,11.2-11.4c4.7-3.3,10.1-5.8,16.3-7.7c6.2-1.9,12.7-2.8,19.5-2.8
			c6.7,0,13.2,0.9,19.4,2.8c6.2,1.8,11.7,4.4,16.4,7.6c4.7,3.3,8.5,7.1,11.3,11.4c2.8,4.4,4.2,9,4.2,14.1v28.1H294z M373.9,907.7
			v-4.4c0-3.3-0.7-6.2-2.2-8.8c-1.4-2.6-3.4-4.8-6-6.5c-2.5-1.8-5.5-3.1-9-4.1c-3.5-0.9-7.3-1.4-11.5-1.4c-4.1,0-7.9,0.5-11.4,1.5
			c-3.5,1-6.6,2.3-9.1,4.1c-2.5,1.8-4.5,4-6,6.5c-1.4,2.6-2.2,5.5-2.2,8.7v4.4H373.9z"/>
		<path d="M316.6,809.1v22.5h17.1v-21.3h22.5v21.3h17.7v-22.5h22.5v41.5H294v-41.5H316.6z"/>
		<path d="M320.2,755.4c-2.4,2.1-4.1,4.1-5.2,6.2c-1.1,2.1-1.7,4.1-1.7,6c0,2.5,0.8,4.5,2.4,6c1.6,1.5,3.8,2.3,6.4,2.3
			c1.8,0,3.3-0.4,4.5-1.2c1.2-0.8,2.2-1.8,3.1-3c0.9-1.3,1.6-2.7,2.2-4.3c0.6-1.6,1.3-3.1,2-4.7c2.9-6.2,6.8-10.7,11.6-13.6
			c4.8-2.9,11.2-4.3,18.9-4.3c5.3,0,10,0.6,14.3,1.9c4.3,1.3,7.9,3.1,10.9,5.5c3,2.4,5.4,5.4,7.1,8.9c1.7,3.5,2.5,7.5,2.5,11.9
			c0,9.2-3.8,17.8-11.5,25.6l-21.5-8.1c3.5-2.8,6.2-5.6,7.9-8.4c1.7-2.8,2.6-5.5,2.6-8.2c0-3.1-1-5.4-3-6.9c-2-1.5-4.3-2.3-6.8-2.3
			c-1.5,0-2.9,0.2-4,0.6c-1.1,0.4-2.2,1-3.1,1.9c-1,0.9-1.8,2.1-2.7,3.5c-0.8,1.5-1.7,3.2-2.7,5.3c-1.1,2.5-2.3,4.9-3.6,7.2
			c-1.3,2.4-3.1,4.4-5.2,6.3c-2.2,1.8-4.9,3.3-8.2,4.5c-3.3,1.1-7.5,1.7-12.6,1.7s-9.7-0.6-13.8-1.8c-4.1-1.2-7.6-2.9-10.6-5
			c-2.9-2.2-5.2-4.8-6.9-7.9c-1.6-3.1-2.4-6.6-2.4-10.5c0-3.6,0.7-7.4,2.1-11.3c1.4-3.9,3.5-7.7,6.2-11.3L320.2,755.4z"/>
		<path d="M294,714h102.4v19H294V714z"/>
		<path d="M339.1,663.2v-37.6c5.4,0,10.4,0.2,14.8,0.5c4.4,0.3,8.6,1,12.4,1.9c5.3,1.4,10.1,3.2,14.2,5.5c4.1,2.3,7.6,5,10.3,8.2
			c2.8,3.1,4.9,6.6,6.3,10.3c1.4,3.7,2.2,7.7,2.2,11.8c0,5.7-1.3,10.9-3.9,15.5c-2.6,4.7-6.3,8.7-11.1,12c-4.8,3.4-10.5,6-17.1,7.8
			c-6.7,1.9-14,2.8-22.1,2.8c-8,0-15.3-0.9-21.9-2.8c-6.7-1.8-12.3-4.5-17-7.8c-4.7-3.4-8.4-7.5-11-12.2c-2.6-4.8-3.9-10.1-3.9-16
			c0-7.6,2.3-14.3,6.9-20c4.6-5.7,11.8-10.3,21.5-13.6l10.5,18c-5.6,1.7-9.6,3.9-12.1,6.5c-2.4,2.7-3.7,5.7-3.7,9.1
			c0,2.8,0.7,5.4,2.2,7.7c1.5,2.3,3.6,4.3,6.4,5.9c2.8,1.6,6.1,2.9,10,3.9c3.9,0.9,8.2,1.4,13,1.4c4.3,0,8.4-0.4,12.1-1.2
			c3.7-0.8,6.9-2,9.6-3.6c2.7-1.6,4.8-3.6,6.3-6c1.5-2.4,2.2-5.2,2.2-8.3c0-1.9-0.3-3.7-0.9-5.4c-0.6-1.7-1.5-3.3-2.9-4.7
			c-1.3-1.4-3-2.5-5.1-3.4c-2.1-0.9-4.6-1.5-7.6-1.8v15.6H339.1z"/>
		<path d="M396.4,613.6H294v-19l62.6-35H294v-18.9h102.4v18.9l-62.6,35h62.6V613.6z"/>
	</g>
</g>
</svg>
